Coordinates
version=1
nRows=5
nColumns=40
inDegrees=yes

Units are S.I. units (second, meters, Newtons, ...)
If the header above contains a line with 'inDegrees', this indicates whether rotational values are in degrees (yes) or radians (no).

endheader
time	pelvis_tilt	pelvis_list	pelvis_rotation	pelvis_tx	pelvis_ty	pelvis_tz	hip_flexion_r	hip_adduction_r	hip_rotation_r	knee_angle_r	knee_angle_r_beta	ankle_angle_r	subtalar_angle_r	mtp_angle_r	hip_flexion_l	hip_adduction_l	hip_rotation_l	knee_angle_l	knee_angle_l_beta	ankle_angle_l	subtalar_angle_l	mtp_angle_l	lumbar_extension	lumbar_bending	lumbar_rotation	arm_flex_r	arm_add_r	arm_rot_r	elbow_flex_r	pro_sup_r	wrist_flex_r	wrist_dev_r	arm_flex_l	arm_add_l	arm_rot_l	elbow_flex_l	pro_sup_l	wrist_flex_l	wrist_dev_l
      0.00000000	      6.16532838	     -7.96634459	     -1.73153385	     -0.40094938	      1.20371826	      0.02200404	     67.19588550	      0.55712279	     -4.06526484	     89.66973757	      1.56503216	     15.44128456	    -18.79601579	      0.00000000	     31.67478741	     -9.91383272	     12.32099880	     63.08765875	      1.10108736	     -6.21874265	    -34.69296605	      0.00000000	    -69.03031768	      6.30436420	     13.26454166	     81.95234926	    -12.89522343	     17.42137190	     46.60008814	      5.32422934	      0.00000000	      0.00000000	     89.85847045	     -1.37999793	     32.93436320	     23.07316902	     80.14250221	      0.00000000	      0.00000000
      0.00833333	      6.32993162	     -7.48214274	     -1.78826010	     -0.40093639	      1.20420854	      0.02177499	     65.91295793	      0.55554011	     -3.62522187	     87.42545004	      1.52586195	     15.43458613	    -18.76848352	      0.00000000	     32.26000407	     -9.30696957	     12.20405114	     65.41655421	      1.14173426	     -5.99952875	    -34.77369456	      0.00000000	    -69.14659220	      6.02511924	     12.81824363	     81.96278546	    -12.88001669	     17.37801606	     46.67142929	      5.32098606	      0.00000000	      0.00000000	     89.86163372	     -1.40431131	     32.84732185	     23.12071782	     80.14327375	      0.00000000	      0.00000000
      0.01666667	      6.33153753	     -7.53528595	     -1.71832841	     -0.40090375	      1.20411780	      0.02203321	     64.63141158	      0.68673005	     -3.86654644	     85.08944633	      1.48509100	     15.54029116	    -18.65298633	      0.00000000	     33.29543631	     -9.22687191	     12.49044326	     68.01155313	      1.18702553	     -5.44940089	    -34.43385408	      0.00000000	    -69.11997518	      6.09350422	     12.82629775	     82.00427442	    -12.76027394	     17.30289080	     46.45694562	      5.34031501	      0.00000000	      0.00000000	     89.86214761	     -1.38687235	     32.75543398	     23.01854451	     80.23418730	      0.00000000	      0.00000000
      0.02500000	      6.56293917	     -7.02367462	     -1.77004423	     -0.40061001	      1.20437327	      0.02199206	     63.09125041	      0.61416173	     -3.45450821	     82.74342119	      1.44414513	     15.42381151	    -18.65184814	      0.00000000	     34.04418873	     -8.61776388	     12.34235616	     70.57133331	      1.23170212	     -5.28579979	    -34.40666902	      0.00000000	    -69.25996324	      5.78903530	     12.32861458	     81.98000243	    -12.66818866	     17.29854559	     46.47905916	      5.33749962	      0.00000000	      0.00000000	     89.86698301	     -1.46743877	     32.69615686	     23.12106621	     80.27612118	      0.00000000	      0.00000000
      0.03333333	      6.70022720	     -6.50679573	     -1.82191914	     -0.40043397	      1.20464078	      0.02183946	     61.55474805	      0.58439094	     -2.97273411	     80.28556195	      1.40124740	     15.25412646	    -18.64864788	      0.00000000	     34.89066955	     -7.96993580	     12.25565224	     72.95924766	      1.27337909	     -5.19000074	    -34.34346317	      0.00000000	    -69.35527046	      5.46838528	     11.85865732	     82.01817848	    -12.63117329	     17.26547183	     46.45100478	      5.33785349	      0.00000000	      0.00000000	     89.87153991	     -1.48558948	     32.68524469	     23.23564316	     80.30595115	      0.00000000	      0.00000000
